<?xml version="1.0" encoding="UTF-8" standalone="no"?>
<!-- Created with Inkscape (http://www.inkscape.org/) -->

<svg
   width="210mm"
   height="297mm"
   viewBox="0 0 210 297"
   version="1.1"
   id="svg1"
   xml:space="preserve"
   inkscape:version="1.3.2 (091e20ef0f, 2023-11-25, custom)"
   sodipodi:docname="logo.svg"
   xmlns:inkscape="http://www.inkscape.org/namespaces/inkscape"
   xmlns:sodipodi="http://sodipodi.sourceforge.net/DTD/sodipodi-0.dtd"
   xmlns="http://www.w3.org/2000/svg"
   xmlns:svg="http://www.w3.org/2000/svg"><sodipodi:namedview
     id="namedview1"
     pagecolor="#ffffff"
     bordercolor="#000000"
     borderopacity="0.25"
     inkscape:showpageshadow="2"
     inkscape:pageopacity="0.0"
     inkscape:pagecheckerboard="0"
     inkscape:deskcolor="#d1d1d1"
     inkscape:document-units="mm"
     inkscape:zoom="2.3786088"
     inkscape:cx="425.66899"
     inkscape:cy="295.34071"
     inkscape:window-width="1418"
     inkscape:window-height="854"
     inkscape:window-x="0"
     inkscape:window-y="0"
     inkscape:window-maximized="0"
     inkscape:current-layer="layer1" /><defs
     id="defs1" /><g
     inkscape:label="Layer 1"
     inkscape:groupmode="layer"
     id="layer1"><path
       style="fill:#6b6b6b;fill-opacity:1;stroke-width:0.264583"
       d="m 85.446443,66.815863 h 2.775323 V 50.229976 h -2.944347 z"
       id="path13" /><path
       style="fill:#6b6b6b;fill-opacity:1;stroke-width:0.264583"
       d="M 111.77936,108.5566 V 68.652426 l -6.1325,-6.132507 V 41.36967 h -3.15547 v 22.878566 l 6.12854,6.128543 v 6.424118 L 98.066922,66.247885 V 45.674393 h -3.38361 v 23.457831 l 13.836228,13.836229 v 23.363887 z"
       id="path14" /><path
       style="fill:#6b6b6b;fill-opacity:1;stroke-width:0.264583"
       d="m 117.7127,117.20487 3.88261,-14.4901 -1.59299,-2.759149 v -38.91689 h -4.2435 v 38.760656 l -1.68704,2.922033 z"
       id="path15" /><path
       style="fill:#6b6b6b;fill-opacity:1;stroke-width:0.264583"
       d="M 124.28251,109.1 V 68.544926 l 5.91484,-5.914848 V 41.636889 h 2.96438 V 64.34197 l -6.11986,6.119854 v 7.136067 L 137.80972,66.830037 V 45.765029 h 3.08336 v 22.80386 l -13.59581,13.595813 v 24.332168 z"
       id="path16" /><path
       style="fill:#6b6b6b;fill-opacity:1;stroke-width:0.264583"
       d="m 130.90529,93.67204 h 2.43423 v -8.146516 h -2.65573 z"
       id="path18" /><path
       style="fill:#6b6b6b;fill-opacity:1;stroke-width:0.264583"
       d="m 147.50007,66.713438 h 2.75122 V 50.272312 h -2.86736 z"
       id="path19" /><path
       style="fill:#6b6b6b;fill-opacity:1;stroke-width:0.264583"
       d="m 102.54408,93.584595 h 2.54122 v -8.129569 h -2.6227 z"
       id="path20" /><path
       style="fill:#6b6b6b;fill-opacity:1;stroke-width:0.264583"
       d="m 102.55103,102.81456 2.7559,1.59112 v -6.59157 h -2.74667 z"
       id="path21" /><path
       style="fill:#6b6b6b;fill-opacity:1;stroke-width:0.264583"
       d="m 130.85247,105.37973 2.57373,-1.48594 v -6.40272 h -2.80232 z"
       id="path22" /><path
       style="fill:#383838;fill-opacity:1;stroke-width:0.265;stroke-dasharray:none"
       id="path23"
       sodipodi:type="arc"
       sodipodi:cx="86.690796"
       sodipodi:cy="81.494408"
       sodipodi:rx="1.6790159"
       sodipodi:ry="1.4611409"
       sodipodi:start="0"
       sodipodi:end="6.2828612"
       sodipodi:open="true"
       sodipodi:arc-type="chord"
       d="m 88.369812,81.494408 a 1.6790159,1.4611409 0 0 1 -1.67888,1.461141 1.6790159,1.4611409 0 0 1 -1.679152,-1.460905 1.6790159,1.4611409 0 0 1 1.678608,-1.461377 1.6790159,1.4611409 0 0 1 1.679424,1.460667 z" /><path
       style="fill:#383838;fill-opacity:1;stroke-width:0.264999;stroke-dasharray:none"
       id="path24"
       sodipodi:type="arc"
       sodipodi:cx="86.695564"
       sodipodi:cy="70.810013"
       sodipodi:rx="4.7573013"
       sodipodi:ry="4.1627827"
       sodipodi:start="0"
       sodipodi:end="6.2828612"
       sodipodi:open="true"
       sodipodi:arc-type="chord"
       d="m 91.452866,70.810013 a 4.7573013,4.1627827 0 0 1 -4.756916,4.162782 4.7573013,4.1627827 0 0 1 -4.757687,-4.162108 4.7573013,4.1627827 0 0 1 4.756145,-4.163457 4.7573013,4.1627827 0 0 1 4.758457,4.161434 z" /><path
       style="fill:#383838;fill-opacity:1;stroke-width:0.264999;stroke-dasharray:none"
       id="path25"
       sodipodi:type="arc"
       sodipodi:cx="86.557037"
       sodipodi:cy="45.883549"
       sodipodi:rx="4.2154365"
       sodipodi:ry="3.7819524"
       sodipodi:start="0"
       sodipodi:end="6.2828612"
       sodipodi:open="true"
       sodipodi:arc-type="chord"
       d="m 90.772474,45.883549 a 4.2154365,3.7819524 0 0 1 -4.215095,3.781952 4.2154365,3.7819524 0 0 1 -4.215778,-3.781339 4.2154365,3.7819524 0 0 1 4.214412,-3.782566 4.2154365,3.7819524 0 0 1 4.216461,3.780727 z" /><path
       style="fill:#383838;fill-opacity:1;stroke-width:0.264999;stroke-dasharray:none"
       id="path26"
       sodipodi:type="arc"
       sodipodi:cx="96.334908"
       sodipodi:cy="43.423214"
       sodipodi:rx="3.0254393"
       sodipodi:ry="2.7575986"
       sodipodi:start="0"
       sodipodi:end="6.2828612"
       sodipodi:open="true"
       sodipodi:arc-type="chord"
       d="m 99.360347,43.423214 a 3.0254393,2.7575986 0 0 1 -3.025194,2.757599 3.0254393,2.7575986 0 0 1 -3.025685,-2.757152 3.0254393,2.7575986 0 0 1 3.024704,-2.758046 3.0254393,2.7575986 0 0 1 3.026175,2.756705 z" /><path
       style="fill:#383838;fill-opacity:1;stroke-width:0.264999;stroke-dasharray:none"
       id="path27"
       sodipodi:type="arc"
       sodipodi:cx="96.800224"
       sodipodi:cy="82.003014"
       sodipodi:rx="5.3313112"
       sodipodi:ry="4.497756"
       sodipodi:start="0"
       sodipodi:end="6.2828612"
       sodipodi:open="true"
       sodipodi:arc-type="chord"
       d="m 102.13154,82.003014 a 5.3313112,4.497756 0 0 1 -5.330884,4.497756 5.3313112,4.497756 0 0 1 -5.331743,-4.497028 5.3313112,4.497756 0 0 1 5.330015,-4.498484 5.3313112,4.497756 0 0 1 5.332612,4.496298 z" /><path
       style="fill:#383838;fill-opacity:1;stroke-width:0.264999;stroke-dasharray:none"
       id="path28"
       sodipodi:type="arc"
       sodipodi:cx="96.041023"
       sodipodi:cy="91.980103"
       sodipodi:rx="2.0087664"
       sodipodi:ry="1.8604439"
       sodipodi:start="0"
       sodipodi:end="6.2828612"
       sodipodi:open="true"
       sodipodi:arc-type="chord"
       d="m 98.04979,91.980103 a 2.0087664,1.8604439 0 0 1 -2.008604,1.860443 2.0087664,1.8604439 0 0 1 -2.008929,-1.860142 2.0087664,1.8604439 0 0 1 2.008278,-1.860745 2.0087664,1.8604439 0 0 1 2.009255,1.859841 z" /><path
       style="fill:#383838;fill-opacity:1;stroke-width:0.264999;stroke-dasharray:none"
       id="path29"
       sodipodi:type="arc"
       sodipodi:cx="103.80634"
       sodipodi:cy="94.972504"
       sodipodi:rx="1.8204253"
       sodipodi:ry="1.8420092"
       sodipodi:start="0"
       sodipodi:end="6.2828612"
       sodipodi:open="true"
       sodipodi:arc-type="chord"
       d="m 105.62677,94.972504 a 1.8204253,1.8420092 0 0 1 -1.82028,1.842009 1.8204253,1.8420092 0 0 1 -1.82057,-1.841711 1.8204253,1.8420092 0 0 1 1.81998,-1.842307 1.8204253,1.8420092 0 0 1 1.82087,1.841412 z" /><path
       style="fill:#383838;fill-opacity:1;stroke-width:0.264999;stroke-dasharray:none"
       id="path30"
       sodipodi:type="arc"
       sodipodi:cx="104.27596"
       sodipodi:cy="38.169018"
       sodipodi:rx="4.2206216"
       sodipodi:ry="3.9010868"
       sodipodi:start="0"
       sodipodi:end="6.2828612"
       sodipodi:open="true"
       sodipodi:arc-type="chord"
       d="m 108.49658,38.169018 a 4.2206216,3.9010868 0 0 1 -4.22028,3.901087 4.2206216,3.9010868 0 0 1 -4.22096,-3.900455 4.2206216,3.9010868 0 0 1 4.2196,-3.901719 4.2206216,3.9010868 0 0 1 4.22164,3.899822 z" /><path
       style="fill:#383838;fill-opacity:1;stroke-width:0.264999;stroke-dasharray:none"
       id="path31"
       sodipodi:type="arc"
       sodipodi:cx="118.23593"
       sodipodi:cy="53.323711"
       sodipodi:rx="9.744729"
       sodipodi:ry="8.5919456"
       sodipodi:start="0"
       sodipodi:end="6.2828612"
       sodipodi:open="true"
       sodipodi:arc-type="chord"
       d="m 127.98066,53.323711 a 9.744729,8.5919456 0 0 1 -9.74394,8.591946 9.744729,8.5919456 0 0 1 -9.74552,-8.590553 9.744729,8.5919456 0 0 1 9.74236,-8.593338 9.744729,8.5919456 0 0 1 9.7471,8.589161 z" /><path
       style="fill:#383838;fill-opacity:1;stroke-width:0.264999;stroke-dasharray:none"
       id="path32"
       sodipodi:type="arc"
       sodipodi:cx="117.97324"
       sodipodi:cy="34.534466"
       sodipodi:rx="4.4674926"
       sodipodi:ry="4.1000276"
       sodipodi:start="0"
       sodipodi:end="6.2828612"
       sodipodi:open="true"
       sodipodi:arc-type="chord"
       d="m 122.44074,34.534466 a 4.4674926,4.1000276 0 0 1 -4.46713,4.100027 4.4674926,4.1000276 0 0 1 -4.46786,-4.099363 4.4674926,4.1000276 0 0 1 4.46641,-4.100692 4.4674926,4.1000276 0 0 1 4.46858,4.098699 z" /><path
       style="fill:#383838;fill-opacity:1;stroke-width:0.264999;stroke-dasharray:none"
       id="path33"
       sodipodi:type="arc"
       sodipodi:cx="131.49461"
       sodipodi:cy="37.974686"
       sodipodi:rx="4.4215593"
       sodipodi:ry="4.2511926"
       sodipodi:start="0"
       sodipodi:end="6.2828612"
       sodipodi:open="true"
       sodipodi:arc-type="chord"
       d="m 135.91617,37.974686 a 4.4215593,4.2511926 0 0 1 -4.4212,4.251192 4.4215593,4.2511926 0 0 1 -4.42192,-4.250503 4.4215593,4.2511926 0 0 1 4.42049,-4.251882 4.4215593,4.2511926 0 0 1 4.42263,4.249815 z" /><path
       style="fill:#383838;fill-opacity:1;stroke-width:0.264999;stroke-dasharray:none"
       id="path34"
       sodipodi:type="arc"
       sodipodi:cx="132.12831"
       sodipodi:cy="95.060677"
       sodipodi:rx="1.9914668"
       sodipodi:ry="1.8173912"
       sodipodi:start="0"
       sodipodi:end="6.2828612"
       sodipodi:open="true"
       sodipodi:arc-type="chord"
       d="m 134.11978,95.060677 a 1.9914668,1.8173912 0 0 1 -1.99131,1.817391 1.9914668,1.8173912 0 0 1 -1.99163,-1.817097 1.9914668,1.8173912 0 0 1 1.99099,-1.817686 1.9914668,1.8173912 0 0 1 1.99195,1.816803 z" /><path
       style="fill:#383838;fill-opacity:1;stroke-width:0.264999;stroke-dasharray:none"
       id="path35"
       sodipodi:type="arc"
       sodipodi:cx="139.39749"
       sodipodi:cy="43.13924"
       sodipodi:rx="3.3421319"
       sodipodi:ry="3.1021736"
       sodipodi:start="0"
       sodipodi:end="6.2828612"
       sodipodi:open="true"
       sodipodi:arc-type="chord"
       d="m 142.73962,43.13924 a 3.3421319,3.1021736 0 0 1 -3.34186,3.102174 3.3421319,3.1021736 0 0 1 -3.3424,-3.101671 3.3421319,3.1021736 0 0 1 3.34132,-3.102676 3.3421319,3.1021736 0 0 1 3.34294,3.101168 z" /><path
       style="fill:#383838;fill-opacity:1;stroke-width:0.264999;stroke-dasharray:none"
       id="path36"
       sodipodi:type="arc"
       sodipodi:cx="139.4137"
       sodipodi:cy="81.804916"
       sodipodi:rx="4.9054699"
       sodipodi:ry="4.3248544"
       sodipodi:start="0"
       sodipodi:end="6.2828612"
       sodipodi:open="true"
       sodipodi:arc-type="chord"
       d="m 144.31917,81.804916 a 4.9054699,4.3248544 0 0 1 -4.90508,4.324855 4.9054699,4.3248544 0 0 1 -4.90586,-4.324154 4.9054699,4.3248544 0 0 1 4.90427,-4.325555 4.9054699,4.3248544 0 0 1 4.90667,4.323453 z" /><path
       style="fill:#383838;fill-opacity:1;stroke-width:0.264999;stroke-dasharray:none"
       id="path37"
       sodipodi:type="arc"
       sodipodi:cx="139.81604"
       sodipodi:cy="92.132027"
       sodipodi:rx="2.0299664"
       sodipodi:ry="1.9111392"
       sodipodi:start="0"
       sodipodi:end="6.2828612"
       sodipodi:open="true"
       sodipodi:arc-type="chord"
       d="m 141.84601,92.132027 a 2.0299664,1.9111392 0 0 1 -2.02981,1.911139 2.0299664,1.9111392 0 0 1 -2.03013,-1.91083 2.0299664,1.9111392 0 0 1 2.02948,-1.911449 2.0299664,1.9111392 0 0 1 2.03046,1.91052 z" /><path
       style="fill:#383838;fill-opacity:1;stroke-width:0.264999;stroke-dasharray:none"
       id="path38"
       sodipodi:type="arc"
       sodipodi:cx="149.29361"
       sodipodi:cy="81.53093"
       sodipodi:rx="1.8269542"
       sodipodi:ry="1.741617"
       sodipodi:start="0"
       sodipodi:end="6.2828612"
       sodipodi:open="true"
       sodipodi:arc-type="chord"
       d="m 151.12056,81.53093 a 1.8269542,1.741617 0 0 1 -1.8268,1.741617 1.8269542,1.741617 0 0 1 -1.8271,-1.741335 1.8269542,1.741617 0 0 1 1.82651,-1.741899 1.8269542,1.741617 0 0 1 1.82739,1.741052 z" /><path
       style="fill:#383838;fill-opacity:1;stroke-width:0.264999;stroke-dasharray:none"
       id="path39"
       sodipodi:type="arc"
       sodipodi:cx="148.952"
       sodipodi:cy="70.787277"
       sodipodi:rx="4.6796699"
       sodipodi:ry="4.3517237"
       sodipodi:start="0"
       sodipodi:end="6.2828612"
       sodipodi:open="true"
       sodipodi:arc-type="chord"
       d="m 153.63167,70.787277 a 4.6796699,4.3517237 0 0 1 -4.67929,4.351724 4.6796699,4.3517237 0 0 1 -4.68005,-4.351019 4.6796699,4.3517237 0 0 1 4.67853,-4.352428 4.6796699,4.3517237 0 0 1 4.68081,4.350313 z" /><path
       style="fill:#383838;fill-opacity:1;stroke-width:0.264999;stroke-dasharray:none"
       id="path40"
       sodipodi:type="arc"
       sodipodi:cx="148.89731"
       sodipodi:cy="45.928169"
       sodipodi:rx="4.040669"
       sodipodi:ry="3.5948617"
       sodipodi:start="0"
       sodipodi:end="6.2828612"
       sodipodi:open="true"
       sodipodi:arc-type="chord"
       d="m 152.93798,45.928169 a 4.040669,3.5948617 0 0 1 -4.04034,3.594862 4.040669,3.5948617 0 0 1 -4.041,-3.594279 4.040669,3.5948617 0 0 1 4.03969,-3.595444 4.040669,3.5948617 0 0 1 4.04165,3.593696 z" /></g><g
     inkscape:groupmode="layer"
     id="layer2"
     inkscape:label="Layer 2" /></svg>
